<svg xmlns="http://www.w3.org/2000/svg" xmlns:xlink="http://www.w3.org/1999/xlink" width="500" zoomAndPan="magnify" viewBox="0 0 375 374.999991" height="500" preserveAspectRatio="xMidYMid meet" version="1.0"><defs><g/><clipPath id="266440093f"><path d="M 67.242188 62.921875 L 316.398438 62.921875 L 316.398438 312.078125 L 67.242188 312.078125 Z M 67.242188 62.921875 " clip-rule="nonzero"/></clipPath><clipPath id="48324a6989"><path d="M 84.820312 62.921875 L 298.820312 62.921875 C 308.527344 62.921875 316.398438 70.792969 316.398438 80.5 L 316.398438 294.5 C 316.398438 304.207031 308.527344 312.078125 298.820312 312.078125 L 84.820312 312.078125 C 75.113281 312.078125 67.242188 304.207031 67.242188 294.5 L 67.242188 80.5 C 67.242188 70.792969 75.113281 62.921875 84.820312 62.921875 Z M 84.820312 62.921875 " clip-rule="nonzero"/></clipPath><clipPath id="f1ebe82bb9"><path d="M 207.09375 62.921875 L 316.398438 62.921875 L 316.398438 312.269531 L 207.09375 312.269531 Z M 207.09375 62.921875 " clip-rule="nonzero"/></clipPath><clipPath id="d07ce4d6bc"><path d="M 224.671875 62.921875 L 298.820312 62.921875 C 308.527344 62.921875 316.398438 70.792969 316.398438 80.5 L 316.398438 294.5 C 316.398438 304.207031 308.527344 312.078125 298.820312 312.078125 L 224.671875 312.078125 C 214.964844 312.078125 207.09375 304.207031 207.09375 294.5 L 207.09375 80.5 C 207.09375 70.792969 214.964844 62.921875 224.671875 62.921875 Z M 224.671875 62.921875 " clip-rule="nonzero"/></clipPath><clipPath id="82687d8ba0"><path d="M 191 168 L 308 168 L 308 196.242188 L 191 196.242188 Z M 191 168 " clip-rule="nonzero"/></clipPath></defs><g clip-path="url(#266440093f)"><g clip-path="url(#48324a6989)"><path fill="#ffde59" d="M 67.242188 62.921875 L 316.398438 62.921875 L 316.398438 312.078125 L 67.242188 312.078125 Z M 67.242188 62.921875 " fill-opacity="1" fill-rule="nonzero"/></g></g><g clip-path="url(#f1ebe82bb9)"><g clip-path="url(#d07ce4d6bc)"><path fill="#5271ff" d="M 207.09375 62.921875 L 316.398438 62.921875 L 316.398438 312.269531 L 207.09375 312.269531 Z M 207.09375 62.921875 " fill-opacity="1" fill-rule="nonzero"/></g></g><g clip-path="url(#82687d8ba0)"><path fill="#ffde59" d="M 305.609375 180.042969 L 301.082031 180.042969 L 301.082031 170.984375 C 301.082031 170.695312 301.027344 170.417969 300.914062 170.152344 C 300.804688 169.886719 300.648438 169.648438 300.445312 169.445312 C 300.238281 169.242188 300.003906 169.085938 299.738281 168.972656 C 299.472656 168.863281 299.191406 168.808594 298.90625 168.808594 L 254.339844 168.808594 C 254.050781 168.808594 253.773438 168.863281 253.503906 168.972656 C 253.238281 169.085938 253.003906 169.242188 252.800781 169.445312 C 252.59375 169.648438 252.4375 169.886719 252.328125 170.152344 C 252.214844 170.417969 252.160156 170.695312 252.160156 170.984375 L 252.160156 180.042969 L 247.632812 180.042969 C 247.34375 180.042969 247.066406 180.097656 246.800781 180.207031 C 246.53125 180.320312 246.296875 180.476562 246.09375 180.679688 C 245.890625 180.882812 245.730469 181.121094 245.621094 181.386719 C 245.511719 181.652344 245.457031 181.929688 245.457031 182.21875 L 245.457031 192.105469 L 193.203125 192.105469 C 192.96875 192.164062 192.75 192.257812 192.546875 192.390625 C 192.34375 192.523438 192.167969 192.683594 192.019531 192.875 C 191.867188 193.066406 191.753906 193.277344 191.675781 193.507812 C 191.597656 193.738281 191.558594 193.972656 191.558594 194.214844 C 191.558594 194.457031 191.597656 194.695312 191.675781 194.921875 C 191.753906 195.152344 191.867188 195.363281 192.019531 195.554688 C 192.167969 195.746094 192.34375 195.90625 192.546875 196.039062 C 192.75 196.171875 192.96875 196.269531 193.203125 196.328125 L 305.609375 196.328125 C 305.898438 196.328125 306.175781 196.273438 306.441406 196.160156 C 306.710938 196.050781 306.945312 195.894531 307.148438 195.691406 C 307.355469 195.484375 307.511719 195.25 307.621094 194.984375 C 307.730469 194.714844 307.785156 194.4375 307.785156 194.148438 L 307.785156 182.152344 C 307.777344 181.871094 307.71875 181.601562 307.601562 181.339844 C 307.488281 181.082031 307.328125 180.855469 307.125 180.65625 C 306.921875 180.460938 306.691406 180.308594 306.429688 180.203125 C 306.164062 180.09375 305.894531 180.042969 305.609375 180.042969 Z M 305.609375 180.042969 " fill-opacity="1" fill-rule="nonzero"/></g><path fill="#ffde59" d="M 197.035156 164.28125 L 236.421875 135.367188 L 242.472656 143.597656 C 242.207031 144.035156 242.011719 144.5 241.886719 144.992188 C 241.757812 145.488281 241.707031 145.988281 241.730469 146.5 C 241.753906 147.011719 241.851562 147.503906 242.023438 147.984375 C 242.195312 148.46875 242.429688 148.914062 242.734375 149.324219 L 245.128906 152.566406 C 245.609375 153.246094 246.21875 153.777344 246.957031 154.160156 C 247.695312 154.542969 248.476562 154.738281 249.308594 154.742188 C 250.449219 154.75 251.472656 154.40625 252.378906 153.722656 L 275.433594 136.78125 C 275.710938 136.582031 275.964844 136.359375 276.199219 136.109375 C 276.429688 135.859375 276.636719 135.585938 276.8125 135.296875 C 276.992188 135.007812 277.140625 134.699219 277.257812 134.378906 C 277.375 134.058594 277.460938 133.730469 277.515625 133.394531 C 277.566406 133.058594 277.585938 132.71875 277.570312 132.378906 C 277.558594 132.035156 277.507812 131.699219 277.425781 131.367188 C 277.347656 131.039062 277.234375 130.71875 277.089844 130.40625 C 276.945312 130.097656 276.769531 129.808594 276.566406 129.53125 L 274.171875 126.289062 C 273.871094 125.878906 273.515625 125.519531 273.109375 125.214844 C 272.703125 124.910156 272.257812 124.667969 271.78125 124.496094 C 271.300781 124.320312 270.808594 124.21875 270.300781 124.191406 C 269.792969 124.164062 269.289062 124.210938 268.792969 124.328125 L 245.457031 92.523438 C 245.714844 92.089844 245.910156 91.625 246.03125 91.136719 C 246.15625 90.644531 246.207031 90.148438 246.183594 89.640625 C 246.160156 89.136719 246.0625 88.644531 245.894531 88.167969 C 245.726562 87.691406 245.492188 87.246094 245.195312 86.839844 L 242.820312 83.550781 C 242.617188 83.277344 242.390625 83.027344 242.136719 82.800781 C 241.882812 82.570312 241.609375 82.371094 241.316406 82.195312 C 241.023438 82.019531 240.714844 81.875 240.394531 81.761719 C 240.074219 81.648438 239.742188 81.566406 239.40625 81.515625 C 239.070312 81.464844 238.730469 81.449219 238.390625 81.46875 C 238.046875 81.484375 237.710938 81.535156 237.382812 81.617188 C 237.050781 81.699219 236.730469 81.816406 236.421875 81.960938 C 236.113281 82.105469 235.824219 82.28125 235.550781 82.484375 L 212.496094 99.378906 C 212.21875 99.582031 211.96875 99.808594 211.742188 100.058594 C 211.511719 100.3125 211.308594 100.582031 211.132812 100.875 C 210.957031 101.167969 210.8125 101.472656 210.695312 101.792969 C 210.578125 102.113281 210.496094 102.441406 210.445312 102.777344 C 210.394531 103.113281 210.375 103.449219 210.390625 103.789062 C 210.40625 104.128906 210.453125 104.464844 210.53125 104.796875 C 210.613281 105.125 210.726562 105.445312 210.867188 105.753906 C 211.011719 106.0625 211.183594 106.355469 211.382812 106.628906 L 213.757812 109.875 C 214.242188 110.550781 214.855469 111.082031 215.597656 111.464844 C 216.335938 111.847656 217.125 112.042969 217.957031 112.050781 C 218.375 112.058594 218.78125 112 219.179688 111.875 L 225.230469 120.148438 L 185.867188 149.019531 C 185.335938 149.382812 184.847656 149.796875 184.394531 150.257812 C 183.945312 150.71875 183.542969 151.21875 183.191406 151.757812 C 182.839844 152.296875 182.542969 152.867188 182.300781 153.464844 C 182.0625 154.0625 181.878906 154.675781 181.761719 155.308594 C 181.640625 155.941406 181.582031 156.582031 181.589844 157.226562 C 181.59375 157.871094 181.660156 158.507812 181.789062 159.140625 C 181.921875 159.769531 182.109375 160.382812 182.359375 160.976562 C 182.609375 161.570312 182.917969 162.136719 183.277344 162.667969 C 183.714844 163.253906 184.214844 163.777344 184.773438 164.242188 C 185.335938 164.710938 185.945312 165.101562 186.597656 165.425781 C 187.253906 165.746094 187.9375 165.988281 188.648438 166.148438 C 189.359375 166.308594 190.082031 166.382812 190.808594 166.371094 C 193.113281 166.355469 195.191406 165.65625 197.035156 164.28125 Z M 270.777344 128.726562 L 273.171875 131.972656 C 273.324219 132.195312 273.382812 132.441406 273.339844 132.710938 C 273.296875 132.980469 273.167969 133.199219 272.953125 133.363281 L 249.898438 150.304688 C 249.722656 150.429688 249.527344 150.488281 249.308594 150.476562 C 248.976562 150.480469 248.707031 150.351562 248.503906 150.085938 L 246.128906 146.839844 C 245.976562 146.625 245.917969 146.386719 245.957031 146.125 C 245.992188 145.863281 246.117188 145.652344 246.328125 145.492188 L 268.839844 128.921875 L 269.121094 128.75 C 269.296875 128.617188 269.492188 128.550781 269.710938 128.554688 C 269.886719 128.464844 270.074219 128.4375 270.269531 128.472656 C 270.464844 128.503906 270.632812 128.589844 270.777344 128.726562 Z M 214.78125 104.257812 C 214.617188 104.035156 214.558594 103.789062 214.605469 103.515625 C 214.644531 103.25 214.777344 103.039062 214.996094 102.886719 L 238.117188 85.839844 C 238.335938 85.683594 238.578125 85.621094 238.84375 85.660156 C 239.109375 85.699219 239.324219 85.824219 239.492188 86.035156 L 241.863281 89.277344 C 242.011719 89.480469 242.074219 89.703125 242.050781 89.953125 C 242.03125 90.199219 241.933594 90.410156 241.753906 90.585938 L 241.582031 90.585938 L 241.382812 90.78125 L 218.9375 107.328125 C 218.8125 107.375 218.695312 107.441406 218.589844 107.523438 L 218.460938 107.652344 C 218.238281 107.777344 218.003906 107.8125 217.757812 107.765625 C 217.511719 107.714844 217.308594 107.589844 217.152344 107.390625 Z M 186.628906 160.1875 C 186.433594 159.875 186.265625 159.550781 186.132812 159.207031 C 186 158.863281 185.898438 158.507812 185.835938 158.144531 C 185.769531 157.785156 185.742188 157.417969 185.746094 157.050781 C 185.753906 156.679688 185.796875 156.316406 185.875 155.957031 C 185.953125 155.597656 186.0625 155.246094 186.210938 154.910156 C 186.355469 154.570312 186.53125 154.25 186.742188 153.945312 C 186.949219 153.640625 187.183594 153.363281 187.449219 153.105469 C 187.710938 152.847656 188 152.617188 188.304688 152.414062 L 227.710938 123.480469 L 233.9375 131.972656 L 194.578125 160.863281 C 194.292969 161.101562 193.992188 161.3125 193.667969 161.492188 C 193.34375 161.671875 193.003906 161.820312 192.652344 161.933594 C 192.296875 162.046875 191.9375 162.121094 191.570312 162.164062 C 191.199219 162.207031 190.832031 162.210938 190.460938 162.179688 C 190.09375 162.148438 189.730469 162.082031 189.375 161.976562 C 189.019531 161.875 188.675781 161.738281 188.347656 161.566406 C 188.019531 161.394531 187.710938 161.195312 187.421875 160.960938 C 187.132812 160.730469 186.867188 160.472656 186.628906 160.1875 Z M 186.628906 160.1875 " fill-opacity="1" fill-rule="nonzero"/><g fill="#000000" fill-opacity="1"><g transform="translate(105.620128, 288.848009)"><g><path d="M 28.25 -75.203125 L 28.25 -21.75 C 28.25 -15.25 26.828125 -12.8125 22.046875 -12.8125 C 16.765625 -12.8125 15.859375 -15.75 15.859375 -22.65625 L 15.859375 -23.578125 L 0.40625 -23.578125 L 0.40625 -19.40625 C 0.40625 -5.28125 9.546875 1.421875 22.046875 1.421875 C 35.359375 1.421875 43.703125 -6.296875 43.703125 -18.90625 L 43.703125 -75.203125 Z M 28.25 -75.203125 "/></g></g></g><g fill="#000000" fill-opacity="1"><g transform="translate(151.28056, 288.905431)"><g><path d="M 27.84375 -77.015625 C 13.671875 -77.015625 4.6875 -67.9375 4.6875 -53.546875 C 4.6875 -41.71875 11.53125 -36.109375 23.65625 -31.921875 C 31.015625 -29.375 37.328125 -27.34375 37.328125 -21.21875 C 37.328125 -15.8125 34.265625 -12.234375 28.5625 -12.234375 C 21.9375 -12.234375 19.28125 -15.703125 18.96875 -23.765625 L 3.46875 -23.765625 C 3.46875 -7.859375 11.015625 1.421875 28.25 1.421875 C 42.9375 1.421875 53.25 -7.546875 53.25 -21.421875 C 53.25 -34.6875 46.203125 -41.3125 33.15625 -45.59375 C 24.6875 -48.34375 20.609375 -50.484375 20.609375 -55.890625 C 20.609375 -60.484375 23.5625 -64.15625 28.453125 -64.15625 C 33.453125 -64.15625 36.40625 -60.796875 36.71875 -55.390625 L 51.8125 -55.390625 C 49.46875 -70.375 41.8125 -77.015625 27.84375 -77.015625 Z M 27.84375 -77.015625 "/></g></g></g><g fill="#000000" fill-opacity="1"><g transform="translate(211.224189, 288.905431)"><g><path d="M 2.25 -75.484375 L 2.25 -61.203125 L 14.890625 -61.203125 L 14.890625 0 L 30.390625 0 L 30.390625 -61.203125 L 43.046875 -61.203125 L 43.046875 -75.484375 Z M 2.25 -75.484375 "/></g></g></g><g fill="#000000" fill-opacity="1"><g transform="translate(257.759549, 289.059063)"><g><path d="M 5.921875 -75.484375 L 5.921875 -61.203125 L 28.359375 -61.203125 L 3.671875 -13.671875 L 3.671875 0 L 46.515625 0 L 46.515625 -14.28125 L 21.625 -14.28125 L 46.515625 -61.203125 L 46.515625 -75.484375 Z M 5.921875 -75.484375 "/></g></g></g></svg>